<svg width="24" height="24" viewBox="0 0 24 24" fill="none" xmlns="http://www.w3.org/2000/svg">
<path fill-rule="evenodd" clip-rule="evenodd" d="M1 4C1 3.44772 1.41041 3 1.91667 3H22.0833C22.5896 3 23 3.44772 23 4C23 4.55228 22.5896 5 22.0833 5H1.91667C1.41041 5 1 4.55228 1 4Z" fill="black"/>
<path fill-rule="evenodd" clip-rule="evenodd" d="M1 12C1 11.4477 1.41041 11 1.91667 11H22.0833C22.5896 11 23 11.4477 23 12C23 12.5523 22.5896 13 22.0833 13H1.91667C1.41041 13 1 12.5523 1 12Z" fill="black"/>
<path fill-rule="evenodd" clip-rule="evenodd" d="M1 20C1 19.4477 1.41041 19 1.91667 19H22.0833C22.5896 19 23 19.4477 23 20C23 20.5523 22.5896 21 22.0833 21H1.91667C1.41041 21 1 20.5523 1 20Z" fill="black"/>
</svg>
