<svg width="24" height="24" viewBox="0 0 24 24" fill="none" xmlns="http://www.w3.org/2000/svg">
<path fill-rule="evenodd" clip-rule="evenodd" d="M5.57144 23C4.46687 23 3.57144 22.1046 3.57144 21V14.6429H3.00001C2.20362 14.6429 1.48312 14.1704 1.16572 13.44C0.848317 12.7095 0.994509 11.8604 1.5379 11.2782L10.5379 1.63536C10.9162 1.23009 11.4457 1 12 1C12.5544 1 13.0839 1.23009 13.4621 1.63536L22.4621 11.2782C23.0055 11.8604 23.1517 12.7095 22.8343 13.44C22.5169 14.1704 21.7964 14.6429 21 14.6429H20.4286V21C20.4286 22.1046 19.5332 23 18.4286 23H15C13.8954 23 13 22.1046 13 21V16.5714H11V21C11 22.1046 10.1046 23 9.00001 23H5.57144ZM9.00001 14.5714H15V21H18.4286V12.6429H21L12 3L3.00001 12.6429H5.57144V21H9.00001V14.5714Z" fill="black"/>
</svg>
