<svg width="24" height="24" viewBox="0 0 24 24" fill="none" xmlns="http://www.w3.org/2000/svg">
<path d="M4.67344 13.437L11.0262 19.6017C11.2898 19.8575 11.6379 20 12 20C12.3621 20 12.7102 19.8575 12.9738 19.6017L19.3266 13.437C20.3953 12.4029 21 10.9521 21 9.43563V9.22368C21 6.66938 19.2246 4.49146 16.8023 4.07122C15.1992 3.7935 13.568 4.33798 12.4219 5.52926L12 5.96777L11.5781 5.52926C10.432 4.33798 8.80078 3.7935 7.19766 4.07122C4.77539 4.49146 3 6.66938 3 9.22368V9.43563C3 10.9521 3.60469 12.4029 4.67344 13.437Z" fill="#E30032"/>
<path d="M7.2 13.04C6.86667 13.04 6.612 12.9147 6.436 12.664C6.26 12.4107 6.172 12.0507 6.172 11.584C6.172 11.2693 6.21067 11.0053 6.288 10.792C6.368 10.576 6.484 10.4133 6.636 10.304C6.79067 10.1947 6.97867 10.14 7.2 10.14C7.536 10.14 7.79067 10.2627 7.964 10.508C8.14 10.7533 8.228 11.1107 8.228 11.58C8.228 11.892 8.188 12.1573 8.108 12.376C8.03067 12.592 7.916 12.7573 7.764 12.872C7.612 12.984 7.424 13.04 7.2 13.04ZM7.2 12.62C7.38133 12.62 7.51467 12.536 7.6 12.368C7.688 12.2 7.732 11.9373 7.732 11.58C7.732 11.2227 7.688 10.964 7.6 10.804C7.51467 10.6413 7.38133 10.56 7.2 10.56C7.02133 10.56 6.888 10.6413 6.8 10.804C6.712 10.964 6.668 11.2227 6.668 11.58C6.668 11.9373 6.712 12.2 6.8 12.368C6.888 12.536 7.02133 12.62 7.2 12.62ZM8.84244 12.128C8.78377 12.128 8.73444 12.1093 8.69444 12.072C8.6571 12.032 8.63844 11.984 8.63844 11.928C8.63844 11.8693 8.6571 11.8213 8.69444 11.784C8.73444 11.7467 8.78377 11.728 8.84244 11.728H9.69444C9.75044 11.728 9.7971 11.7467 9.83444 11.784C9.87444 11.8213 9.89444 11.8693 9.89444 11.928C9.89444 11.984 9.87444 12.032 9.83444 12.072C9.7971 12.1093 9.75044 12.128 9.69444 12.128H8.84244ZM10.8208 13.032C10.7595 13.032 10.7088 13.0173 10.6688 12.988C10.6288 12.9587 10.6048 12.92 10.5968 12.872C10.5888 12.8213 10.6008 12.7653 10.6328 12.704L11.8408 10.432V10.608H10.5448C10.4728 10.608 10.4168 10.5893 10.3768 10.552C10.3395 10.5147 10.3208 10.4627 10.3208 10.396C10.3208 10.3267 10.3395 10.2733 10.3768 10.236C10.4168 10.1987 10.4728 10.18 10.5448 10.18H12.0928C12.1648 10.18 12.2235 10.1987 12.2688 10.236C12.3141 10.2733 12.3368 10.3267 12.3368 10.396C12.3368 10.4547 12.3288 10.5067 12.3128 10.552C12.2968 10.5947 12.2755 10.6413 12.2488 10.692L11.1128 12.864C11.0835 12.9227 11.0448 12.9653 10.9968 12.992C10.9515 13.0187 10.8928 13.032 10.8208 13.032ZM13.8353 13.04C13.6033 13.04 13.4046 12.9853 13.2393 12.876C13.0766 12.764 12.9526 12.604 12.8673 12.396C12.7819 12.188 12.7393 11.936 12.7393 11.64C12.7393 11.4 12.7659 11.188 12.8193 11.004C12.8753 10.8173 12.9553 10.66 13.0592 10.532C13.1633 10.404 13.2899 10.3067 13.4393 10.24C13.5913 10.1733 13.7619 10.14 13.9513 10.14C14.0686 10.14 14.1873 10.1587 14.3073 10.196C14.4299 10.2307 14.5446 10.284 14.6513 10.356C14.6939 10.3827 14.7219 10.4173 14.7352 10.46C14.7486 10.5027 14.7499 10.5453 14.7393 10.588C14.7313 10.628 14.7126 10.664 14.6833 10.696C14.6566 10.7253 14.6219 10.744 14.5793 10.752C14.5366 10.7573 14.4899 10.7453 14.4393 10.716C14.3486 10.6627 14.2633 10.6253 14.1833 10.604C14.1033 10.5827 14.0233 10.572 13.9433 10.572C13.7886 10.572 13.6579 10.608 13.5513 10.68C13.4446 10.752 13.3633 10.86 13.3073 11.004C13.2539 11.148 13.2273 11.328 13.2273 11.544V11.844H13.1793C13.2006 11.708 13.2446 11.592 13.3113 11.496C13.3806 11.3973 13.4686 11.3227 13.5753 11.272C13.6819 11.2187 13.8006 11.192 13.9313 11.192C14.0939 11.192 14.2379 11.2307 14.3633 11.308C14.4886 11.3853 14.5872 11.492 14.6593 11.628C14.7313 11.764 14.7673 11.92 14.7673 12.096C14.7673 12.2773 14.7273 12.44 14.6473 12.584C14.5699 12.7253 14.4606 12.8373 14.3193 12.92C14.1806 13 14.0193 13.04 13.8353 13.04ZM13.8073 12.632C13.9033 12.632 13.9873 12.6107 14.0593 12.568C14.1339 12.5253 14.1913 12.4653 14.2313 12.388C14.2713 12.308 14.2913 12.2173 14.2913 12.116C14.2913 12.012 14.2713 11.9213 14.2313 11.844C14.1913 11.7667 14.1339 11.7067 14.0593 11.664C13.9873 11.6187 13.9033 11.596 13.8073 11.596C13.7113 11.596 13.6273 11.6187 13.5553 11.664C13.4833 11.7067 13.4259 11.7667 13.3833 11.844C13.3433 11.9213 13.3233 12.012 13.3233 12.116C13.3233 12.2173 13.3433 12.308 13.3833 12.388C13.4259 12.4653 13.4833 12.5253 13.5553 12.568C13.6273 12.6107 13.7113 12.632 13.8073 12.632ZM15.6177 13.032C15.5564 13.032 15.5057 13.0173 15.4657 12.988C15.4257 12.9587 15.4017 12.92 15.3937 12.872C15.3857 12.8213 15.3977 12.7653 15.4297 12.704L16.6377 10.432V10.608H15.3417C15.2697 10.608 15.2137 10.5893 15.1737 10.552C15.1364 10.5147 15.1177 10.4627 15.1177 10.396C15.1177 10.3267 15.1364 10.2733 15.1737 10.236C15.2137 10.1987 15.2697 10.18 15.3417 10.18H16.8897C16.9617 10.18 17.0204 10.1987 17.0657 10.236C17.111 10.2733 17.1337 10.3267 17.1337 10.396C17.1337 10.4547 17.1257 10.5067 17.1097 10.552C17.0937 10.5947 17.0724 10.6413 17.0457 10.692L15.9097 12.864C15.8804 12.9227 15.8417 12.9653 15.7937 12.992C15.7484 13.0187 15.6897 13.032 15.6177 13.032Z" fill="#C6D0EC"/>
</svg>
