<svg width="24" height="24" viewBox="0 0 24 24" fill="none" xmlns="http://www.w3.org/2000/svg">
<path d="M4.67344 13.437L11.0262 19.6017C11.2898 19.8575 11.6379 20 12 20C12.3621 20 12.7102 19.8575 12.9738 19.6017L19.3266 13.437C20.3953 12.4029 21 10.9521 21 9.43563V9.22368C21 6.66938 19.2246 4.49146 16.8023 4.07122C15.1992 3.7935 13.568 4.33798 12.4219 5.52926L12 5.96777L11.5781 5.52926C10.432 4.33798 8.80078 3.7935 7.19766 4.07122C4.77539 4.49146 3 6.66938 3 9.22368V9.43563C3 10.9521 3.60469 12.4029 4.67344 13.437Z" fill="#E30032"/>
<path d="M3.688 13.032C3.62667 13.032 3.576 13.0173 3.536 12.988C3.496 12.9587 3.472 12.92 3.464 12.872C3.456 12.8213 3.468 12.7653 3.5 12.704L4.708 10.432V10.608H3.412C3.34 10.608 3.284 10.5893 3.244 10.552C3.20667 10.5147 3.188 10.4627 3.188 10.396C3.188 10.3267 3.20667 10.2733 3.244 10.236C3.284 10.1987 3.34 10.18 3.412 10.18H4.96C5.032 10.18 5.09067 10.1987 5.136 10.236C5.18133 10.2733 5.204 10.3267 5.204 10.396C5.204 10.4547 5.196 10.5067 5.18 10.552C5.164 10.5947 5.14267 10.6413 5.116 10.692L3.98 12.864C3.95067 12.9227 3.912 12.9653 3.864 12.992C3.81867 13.0187 3.76 13.032 3.688 13.032ZM6.70244 13.04C6.47044 13.04 6.27177 12.9853 6.10644 12.876C5.94377 12.764 5.81977 12.604 5.73444 12.396C5.6491 12.188 5.60644 11.936 5.60644 11.64C5.60644 11.4 5.6331 11.188 5.68644 11.004C5.74244 10.8173 5.82244 10.66 5.92644 10.532C6.03044 10.404 6.1571 10.3067 6.30644 10.24C6.45844 10.1733 6.6291 10.14 6.81844 10.14C6.93577 10.14 7.05444 10.1587 7.17444 10.196C7.2971 10.2307 7.41177 10.284 7.51844 10.356C7.5611 10.3827 7.5891 10.4173 7.60244 10.46C7.61577 10.5027 7.6171 10.5453 7.60644 10.588C7.59844 10.628 7.57977 10.664 7.55044 10.696C7.52377 10.7253 7.4891 10.744 7.44644 10.752C7.40377 10.7573 7.3571 10.7453 7.30644 10.716C7.21577 10.6627 7.13044 10.6253 7.05044 10.604C6.97044 10.5827 6.89044 10.572 6.81044 10.572C6.65577 10.572 6.5251 10.608 6.41844 10.68C6.31177 10.752 6.23044 10.86 6.17444 11.004C6.1211 11.148 6.09444 11.328 6.09444 11.544V11.844H6.04644C6.06777 11.708 6.11177 11.592 6.17844 11.496C6.24777 11.3973 6.33577 11.3227 6.44244 11.272C6.5491 11.2187 6.66777 11.192 6.79844 11.192C6.9611 11.192 7.1051 11.2307 7.23044 11.308C7.35577 11.3853 7.45444 11.492 7.52644 11.628C7.59844 11.764 7.63444 11.92 7.63444 12.096C7.63444 12.2773 7.59444 12.44 7.51444 12.584C7.4371 12.7253 7.32777 12.8373 7.18644 12.92C7.04777 13 6.88644 13.04 6.70244 13.04ZM6.67444 12.632C6.77044 12.632 6.85444 12.6107 6.92644 12.568C7.0011 12.5253 7.05844 12.4653 7.09844 12.388C7.13844 12.308 7.15844 12.2173 7.15844 12.116C7.15844 12.012 7.13844 11.9213 7.09844 11.844C7.05844 11.7667 7.0011 11.7067 6.92644 11.664C6.85444 11.6187 6.77044 11.596 6.67444 11.596C6.57844 11.596 6.49444 11.6187 6.42244 11.664C6.35044 11.7067 6.2931 11.7667 6.25044 11.844C6.21044 11.9213 6.19044 12.012 6.19044 12.116C6.19044 12.2173 6.21044 12.308 6.25044 12.388C6.2931 12.4653 6.35044 12.5253 6.42244 12.568C6.49444 12.6107 6.57844 12.632 6.67444 12.632ZM8.99688 13.04C8.77821 13.04 8.59021 13.0093 8.43288 12.948C8.27821 12.884 8.15821 12.792 8.07288 12.672C7.99021 12.552 7.94888 12.408 7.94888 12.24C7.94888 12.1067 7.97554 11.9893 8.02888 11.888C8.08488 11.784 8.16088 11.7 8.25688 11.636C8.35288 11.572 8.46221 11.532 8.58488 11.516V11.6C8.41421 11.5627 8.27688 11.4813 8.17288 11.356C8.07154 11.228 8.02088 11.076 8.02088 10.9C8.02088 10.74 8.06088 10.604 8.14088 10.492C8.22088 10.3773 8.33421 10.2907 8.48088 10.232C8.62754 10.1707 8.79954 10.14 8.99688 10.14C9.19688 10.14 9.37021 10.1707 9.51688 10.232C9.66354 10.2907 9.77688 10.3773 9.85688 10.492C9.93688 10.604 9.97688 10.74 9.97688 10.9C9.97688 11.0173 9.95288 11.1253 9.90488 11.224C9.85954 11.3227 9.79421 11.404 9.70888 11.468C9.62621 11.532 9.52888 11.5747 9.41688 11.596V11.516C9.60354 11.5427 9.75421 11.6213 9.86888 11.752C9.98621 11.88 10.0449 12.0427 10.0449 12.24C10.0449 12.408 10.0022 12.552 9.91688 12.672C9.83421 12.792 9.71421 12.884 9.55688 12.948C9.40221 13.0093 9.21554 13.04 8.99688 13.04ZM8.99688 12.64C9.18621 12.64 9.32888 12.604 9.42488 12.532C9.52088 12.4573 9.56888 12.348 9.56888 12.204C9.56888 12.06 9.52088 11.952 9.42488 11.88C9.32888 11.808 9.18621 11.772 8.99688 11.772C8.81021 11.772 8.66754 11.808 8.56888 11.88C8.47288 11.952 8.42488 12.06 8.42488 12.204C8.42488 12.348 8.47288 12.4573 8.56888 12.532C8.66754 12.604 8.81021 12.64 8.99688 12.64ZM8.99688 11.372C9.10354 11.372 9.19421 11.356 9.26888 11.324C9.34354 11.2893 9.40088 11.24 9.44088 11.176C9.48088 11.112 9.50088 11.0373 9.50088 10.952C9.50088 10.824 9.45554 10.724 9.36488 10.652C9.27688 10.5773 9.15421 10.54 8.99688 10.54C8.83954 10.54 8.71688 10.5773 8.62888 10.652C8.54088 10.724 8.49688 10.824 8.49688 10.952C8.49688 11.0827 8.54088 11.1853 8.62888 11.26C8.71688 11.3347 8.83954 11.372 8.99688 11.372ZM10.6393 12.128C10.5806 12.128 10.5313 12.1093 10.4913 12.072C10.454 12.032 10.4353 11.984 10.4353 11.928C10.4353 11.8693 10.454 11.8213 10.4913 11.784C10.5313 11.7467 10.5806 11.728 10.6393 11.728H11.4913C11.5473 11.728 11.594 11.7467 11.6313 11.784C11.6713 11.8213 11.6913 11.8693 11.6913 11.928C11.6913 11.984 11.6713 12.032 11.6313 12.072C11.594 12.1093 11.5473 12.128 11.4913 12.128H10.6393ZM12.5537 13C12.4844 13 12.4297 12.9813 12.3897 12.944C12.3524 12.904 12.3337 12.8507 12.3337 12.784C12.3337 12.7147 12.3524 12.6627 12.3897 12.628C12.4297 12.5933 12.4844 12.576 12.5537 12.576H13.0017V10.612H13.2497L12.6617 10.968C12.611 10.9973 12.563 11.0093 12.5177 11.004C12.475 10.996 12.4377 10.9773 12.4057 10.948C12.3764 10.916 12.3564 10.8787 12.3457 10.836C12.335 10.7933 12.3377 10.7507 12.3537 10.708C12.3724 10.6627 12.407 10.6253 12.4577 10.596L13.0097 10.264C13.063 10.232 13.1164 10.2053 13.1697 10.184C13.223 10.16 13.2724 10.148 13.3177 10.148C13.3737 10.148 13.4204 10.164 13.4577 10.196C13.495 10.2253 13.5137 10.2747 13.5137 10.344V12.576H13.9217C13.991 12.576 14.0444 12.5933 14.0817 12.628C14.1217 12.6627 14.1417 12.7147 14.1417 12.784C14.1417 12.8533 14.1217 12.9067 14.0817 12.944C14.0444 12.9813 13.991 13 13.9217 13H12.5537ZM14.8601 13C14.7748 13 14.7121 12.9813 14.6721 12.944C14.6348 12.904 14.6161 12.8467 14.6161 12.772C14.6161 12.7267 14.6281 12.6827 14.6521 12.64C14.6761 12.5973 14.7108 12.552 14.7561 12.504L15.5601 11.648C15.6828 11.52 15.7708 11.404 15.8241 11.3C15.8775 11.1933 15.9041 11.0867 15.9041 10.98C15.9041 10.8467 15.8615 10.7453 15.7761 10.676C15.6935 10.6067 15.5721 10.572 15.4121 10.572C15.3215 10.572 15.2308 10.5853 15.1401 10.612C15.0495 10.636 14.9575 10.6787 14.8641 10.74C14.8161 10.772 14.7708 10.7853 14.7281 10.78C14.6881 10.7747 14.6521 10.7573 14.6201 10.728C14.5908 10.6987 14.5708 10.6627 14.5601 10.62C14.5495 10.5773 14.5508 10.5347 14.5641 10.492C14.5801 10.4467 14.6121 10.408 14.6601 10.376C14.7748 10.2987 14.9028 10.24 15.0441 10.2C15.1881 10.16 15.3321 10.14 15.4761 10.14C15.6788 10.14 15.8495 10.1707 15.9881 10.232C16.1268 10.2933 16.2321 10.3827 16.3041 10.5C16.3761 10.6173 16.4121 10.76 16.4121 10.928C16.4121 11.04 16.3935 11.1493 16.3561 11.256C16.3215 11.3627 16.2668 11.4707 16.1921 11.58C16.1201 11.6893 16.0255 11.8053 15.9081 11.928L15.1561 12.712V12.576H16.3321C16.4041 12.576 16.4588 12.5933 16.4961 12.628C16.5335 12.6627 16.5521 12.7147 16.5521 12.784C16.5521 12.8533 16.5335 12.9067 16.4961 12.944C16.4588 12.9813 16.4041 13 16.3321 13H14.8601ZM17.9266 13.04C17.5932 13.04 17.3386 12.9147 17.1626 12.664C16.9866 12.4107 16.8986 12.0507 16.8986 11.584C16.8986 11.2693 16.9372 11.0053 17.0146 10.792C17.0946 10.576 17.2106 10.4133 17.3626 10.304C17.5172 10.1947 17.7052 10.14 17.9266 10.14C18.2626 10.14 18.5172 10.2627 18.6906 10.508C18.8666 10.7533 18.9546 11.1107 18.9546 11.58C18.9546 11.892 18.9146 12.1573 18.8346 12.376C18.7572 12.592 18.6426 12.7573 18.4906 12.872C18.3386 12.984 18.1506 13.04 17.9266 13.04ZM17.9266 12.62C18.1079 12.62 18.2412 12.536 18.3266 12.368C18.4146 12.2 18.4586 11.9373 18.4586 11.58C18.4586 11.2227 18.4146 10.964 18.3266 10.804C18.2412 10.6413 18.1079 10.56 17.9266 10.56C17.7479 10.56 17.6146 10.6413 17.5266 10.804C17.4386 10.964 17.3946 11.2227 17.3946 11.58C17.3946 11.9373 17.4386 12.2 17.5266 12.368C17.6146 12.536 17.7479 12.62 17.9266 12.62ZM20.325 13.04C19.9917 13.04 19.737 12.9147 19.561 12.664C19.385 12.4107 19.297 12.0507 19.297 11.584C19.297 11.2693 19.3357 11.0053 19.413 10.792C19.493 10.576 19.609 10.4133 19.761 10.304C19.9157 10.1947 20.1037 10.14 20.325 10.14C20.661 10.14 20.9157 10.2627 21.089 10.508C21.265 10.7533 21.353 11.1107 21.353 11.58C21.353 11.892 21.313 12.1573 21.233 12.376C21.1557 12.592 21.041 12.7573 20.889 12.872C20.737 12.984 20.549 13.04 20.325 13.04ZM20.325 12.62C20.5063 12.62 20.6397 12.536 20.725 12.368C20.813 12.2 20.857 11.9373 20.857 11.58C20.857 11.2227 20.813 10.964 20.725 10.804C20.6397 10.6413 20.5063 10.56 20.325 10.56C20.1463 10.56 20.013 10.6413 19.925 10.804C19.837 10.964 19.793 11.2227 19.793 11.58C19.793 11.9373 19.837 12.2 19.925 12.368C20.013 12.536 20.1463 12.62 20.325 12.62Z" fill="#C6D0EC"/>
</svg>
