<svg width="24" height="24" viewBox="0 0 24 24" fill="none" xmlns="http://www.w3.org/2000/svg">
<path d="M4.67344 13.437L11.0262 19.6017C11.2898 19.8575 11.6379 20 12 20C12.3621 20 12.7102 19.8575 12.9738 19.6017L19.3266 13.437C20.3953 12.4029 21 10.9521 21 9.43563V9.22368C21 6.66938 19.2246 4.49146 16.8023 4.07122C15.1992 3.7935 13.568 4.33798 12.4219 5.52926L12 5.96777L11.5781 5.52926C10.432 4.33798 8.80078 3.7935 7.19766 4.07122C4.77539 4.49146 3 6.66938 3 9.22368V9.43563C3 10.9521 3.60469 12.4029 4.67344 13.437Z" fill="#E30032"/>
<path d="M7.624 13C7.55467 13 7.5 12.9813 7.46 12.944C7.42267 12.904 7.404 12.8507 7.404 12.784C7.404 12.7147 7.42267 12.6627 7.46 12.628C7.5 12.5933 7.55467 12.576 7.624 12.576H8.072V10.612H8.32L7.732 10.968C7.68133 10.9973 7.63333 11.0093 7.588 11.004C7.54533 10.996 7.508 10.9773 7.476 10.948C7.44667 10.916 7.42667 10.8787 7.416 10.836C7.40533 10.7933 7.408 10.7507 7.424 10.708C7.44267 10.6627 7.47733 10.6253 7.528 10.596L8.08 10.264C8.13333 10.232 8.18667 10.2053 8.24 10.184C8.29333 10.16 8.34267 10.148 8.388 10.148C8.444 10.148 8.49067 10.164 8.528 10.196C8.56533 10.2253 8.584 10.2747 8.584 10.344V12.576H8.992C9.06133 12.576 9.11467 12.5933 9.152 12.628C9.192 12.6627 9.212 12.7147 9.212 12.784C9.212 12.8533 9.192 12.9067 9.152 12.944C9.11467 12.9813 9.06133 13 8.992 13H7.624ZM9.93044 13C9.8451 13 9.78244 12.9813 9.74244 12.944C9.7051 12.904 9.68644 12.8467 9.68644 12.772C9.68644 12.7267 9.69844 12.6827 9.72244 12.64C9.74644 12.5973 9.7811 12.552 9.82644 12.504L10.6304 11.648C10.7531 11.52 10.8411 11.404 10.8944 11.3C10.9478 11.1933 10.9744 11.0867 10.9744 10.98C10.9744 10.8467 10.9318 10.7453 10.8464 10.676C10.7638 10.6067 10.6424 10.572 10.4824 10.572C10.3918 10.572 10.3011 10.5853 10.2104 10.612C10.1198 10.636 10.0278 10.6787 9.93444 10.74C9.88644 10.772 9.8411 10.7853 9.79844 10.78C9.75844 10.7747 9.72244 10.7573 9.69044 10.728C9.6611 10.6987 9.6411 10.6627 9.63044 10.62C9.61977 10.5773 9.6211 10.5347 9.63444 10.492C9.65044 10.4467 9.68244 10.408 9.73044 10.376C9.8451 10.2987 9.9731 10.24 10.1144 10.2C10.2584 10.16 10.4024 10.14 10.5464 10.14C10.7491 10.14 10.9198 10.1707 11.0584 10.232C11.1971 10.2933 11.3024 10.3827 11.3744 10.5C11.4464 10.6173 11.4824 10.76 11.4824 10.928C11.4824 11.04 11.4638 11.1493 11.4264 11.256C11.3918 11.3627 11.3371 11.4707 11.2624 11.58C11.1904 11.6893 11.0958 11.8053 10.9784 11.928L10.2264 12.712V12.576H11.4024C11.4744 12.576 11.5291 12.5933 11.5664 12.628C11.6038 12.6627 11.6224 12.7147 11.6224 12.784C11.6224 12.8533 11.6038 12.9067 11.5664 12.944C11.5291 12.9813 11.4744 13 11.4024 13H9.93044ZM12.9969 13.04C12.6635 13.04 12.4089 12.9147 12.2329 12.664C12.0569 12.4107 11.9689 12.0507 11.9689 11.584C11.9689 11.2693 12.0075 11.0053 12.0849 10.792C12.1649 10.576 12.2809 10.4133 12.4329 10.304C12.5875 10.1947 12.7755 10.14 12.9969 10.14C13.3329 10.14 13.5875 10.2627 13.7609 10.508C13.9369 10.7533 14.0249 11.1107 14.0249 11.58C14.0249 11.892 13.9849 12.1573 13.9049 12.376C13.8275 12.592 13.7129 12.7573 13.5609 12.872C13.4089 12.984 13.2209 13.04 12.9969 13.04ZM12.9969 12.62C13.1782 12.62 13.3115 12.536 13.3969 12.368C13.4849 12.2 13.5289 11.9373 13.5289 11.58C13.5289 11.2227 13.4849 10.964 13.3969 10.804C13.3115 10.6413 13.1782 10.56 12.9969 10.56C12.8182 10.56 12.6849 10.6413 12.5969 10.804C12.5089 10.964 12.4649 11.2227 12.4649 11.58C12.4649 11.9373 12.5089 12.2 12.5969 12.368C12.6849 12.536 12.8182 12.62 12.9969 12.62ZM14.8193 13C14.75 13 14.6953 12.9813 14.6553 12.944C14.618 12.904 14.5993 12.8507 14.5993 12.784C14.5993 12.7147 14.618 12.6627 14.6553 12.628C14.6953 12.5933 14.75 12.576 14.8193 12.576H15.2673V10.612H15.5153L14.9273 10.968C14.8766 10.9973 14.8286 11.0093 14.7833 11.004C14.7406 10.996 14.7033 10.9773 14.6713 10.948C14.642 10.916 14.622 10.8787 14.6113 10.836C14.6006 10.7933 14.6033 10.7507 14.6193 10.708C14.638 10.6627 14.6726 10.6253 14.7233 10.596L15.2753 10.264C15.3286 10.232 15.382 10.2053 15.4353 10.184C15.4886 10.16 15.538 10.148 15.5833 10.148C15.6393 10.148 15.686 10.164 15.7233 10.196C15.7606 10.2253 15.7793 10.2747 15.7793 10.344V12.576H16.1873C16.2566 12.576 16.31 12.5933 16.3473 12.628C16.3873 12.6627 16.4073 12.7147 16.4073 12.784C16.4073 12.8533 16.3873 12.9067 16.3473 12.944C16.31 12.9813 16.2566 13 16.1873 13H14.8193Z" fill="#C6D0EC"/>
</svg>
