<svg width="24" height="24" viewBox="0 0 24 24" fill="none" xmlns="http://www.w3.org/2000/svg">
<path fill-rule="evenodd" clip-rule="evenodd" d="M1.51523 1.12536C1.83319 0.949132 2.22173 0.959334 2.53 1.152L18.53 11.152C18.8224 11.3347 19 11.6552 19 12C19 12.3448 18.8224 12.6653 18.53 12.848L2.53 22.848C2.22173 23.0407 1.83319 23.0509 1.51523 22.8746C1.19728 22.6984 1 22.3635 1 22V2C1 1.63648 1.19728 1.30158 1.51523 1.12536ZM3 3.80425V20.1958L16.1132 12L3 3.80425Z" fill="black"/>
<path fill-rule="evenodd" clip-rule="evenodd" d="M22 1C22.5523 1 23 1.44772 23 2V22C23 22.5523 22.5523 23 22 23C21.4477 23 21 22.5523 21 22V2C21 1.44772 21.4477 1 22 1Z" fill="black"/>
</svg>
